HIERARCHY
ROOT Hips
{
	OFFSET 0.000000 0.000000 0.000000
	CHANNELS 6 Xposition Yposition Zposition Zrotation Yrotation Xrotation 
	JOINT LHipJoint
	{
		OFFSET 0.000000 0.000000 0.000000
		CHANNELS 3 Zrotation Yrotation Xrotation
		JOINT LeftUpLeg
		{
			OFFSET 1.363060 -1.794630 0.839290
			CHANNELS 3 Zrotation Yrotation Xrotation
			JOINT LeftLeg
			{
				OFFSET 2.448110 -6.726130 0.000000
				CHANNELS 3 Zrotation Yrotation Xrotation
				JOINT LeftFoot
				{
					OFFSET 2.562200 -7.039590 0.000000
					CHANNELS 3 Zrotation Yrotation Xrotation
					JOINT LeftToeBase
					{
						OFFSET 0.157640 -0.433110 2.322550
						CHANNELS 3 Zrotation Yrotation Xrotation
						End Site
						{
							OFFSET 0.000000 0.000000 0.000000
						}
					}
				}
			}
		}
	}
	JOINT RHipJoint
	{
		OFFSET 0.000000 0.000000 0.000000
		CHANNELS 3 Zrotation Yrotation Xrotation
		JOINT RightUpLeg
		{
			OFFSET -1.305520 -1.794630 0.839290
			CHANNELS 3 Zrotation Yrotation Xrotation
			JOINT RightLeg
			{
				OFFSET -2.542530 -6.985550 0.000000
				CHANNELS 3 Zrotation Yrotation Xrotation
				JOINT RightFoot
				{
					OFFSET -2.568260 -7.056230 0.000000
					CHANNELS 3 Zrotation Yrotation Xrotation
					JOINT RightToeBase
					{
						OFFSET -0.164730 -0.452590 2.363150
						CHANNELS 3 Zrotation Yrotation Xrotation
						End Site
						{
							OFFSET 0.000000 0.000000 0.000000
						}
					}
				}
			}
		}
	}
}
MOTION
Frames: 11
Frame Time: 0.008333
-1.029360 15.965796 1.226817 11.742978 77.156213 43.168852 -10.895477 0.090858 -2.792143 -5.006416 0.086336 -38.061234 0.075937 3.715060 64.677568 3.593250 20.368292 -17.107232 -3.127200 -0.000000 -14.344700 7.971444 0.662614 0.402597 17.026728 15.597458 -47.030120 1.434219 -2.634024 52.484920 -3.117074 -4.535838 -31.985026 -177.065600 -0.000000 -6.201101
-0.854896 16.054362 1.317229 10.893779 76.432482 42.873660 -10.650805 -0.093791 -2.532923 -5.036571 -0.819516 -39.533266 -0.015494 3.553412 63.327700 3.662829 20.296477 -17.658490 -3.286100 -0.000000 -13.916100 7.988032 0.587020 0.486792 16.952118 15.791404 -45.904080 1.539733 -2.447031 50.582225 -3.023875 -4.191730 -31.372087 -177.249400 0.000000 -6.912000
-0.680404 16.150857 1.408999 10.012713 75.672011 42.560494 -10.391349 -0.269171 -2.267206 -4.993762 -1.714608 -40.893635 -0.119772 3.367290 61.615879 3.732175 20.191188 -18.099801 -3.396800 -0.000000 -13.690900 8.006403 0.511362 0.556541 16.868412 15.934288 -44.698400 1.659916 -2.245009 48.462127 -2.882077 -3.694722 -30.556551 -177.500300 0.000000 -7.627300
-0.505430 16.254476 1.501943 9.103221 74.874245 42.229345 -10.120062 -0.431110 -1.995740 -4.876777 -2.586377 -42.125154 -0.236006 3.156190 59.529917 3.797136 20.029262 -18.435944 -3.457100 -0.000000 -13.638400 8.029595 0.435824 0.611206 16.777258 16.018574 -43.421391 1.792822 -2.030017 46.135444 -2.679635 -3.020453 -29.476531 -177.823900 -0.000000 -8.218200
-0.329512 16.364175 1.595920 8.168151 74.037248 41.880466 -9.840216 -0.575860 -1.719184 -4.688483 -3.419012 -43.214944 -0.362434 2.919409 57.062356 3.852003 19.784215 -18.658209 -3.459400 -0.000000 -13.767500 8.062016 0.360583 0.651642 16.677821 16.040569 -42.088485 1.934262 -1.805786 43.626293 -2.409148 -2.164426 -28.072358 -178.212700 0.000000 -8.496500
-0.152267 16.478545 1.690696 7.199298 73.156721 41.513421 -9.554955 -0.701568 -1.443594 -4.433669 -4.192168 -44.159649 -0.497318 2.657843 54.214457 3.890106 19.429683 -18.753722 -3.395800 -0.000000 -14.060200 8.108101 0.288893 0.674282 16.569552 16.003172 -40.725166 2.077501 -1.577893 40.975684 -2.071112 -1.148648 -26.296170 -178.643100 0.000000 -8.220300
0.026658 16.595948 1.786078 6.201624 72.231981 41.129982 -9.268311 -0.806092 -1.167684 -4.122536 -4.885590 -44.956613 -0.637543 2.370402 50.995884 3.904605 18.947350 -18.697045 -3.257100 -0.000000 -14.537400 8.174079 0.219666 0.682798 16.452067 15.908279 -39.359236 2.214250 -1.354849 38.241802 -1.675589 -0.019219 -24.124228 -179.077200 0.000000 -7.133700
0.207535 16.714505 1.881907 5.188702 71.267680 40.732271 -8.985208 -0.888543 -0.885465 -3.769758 -5.480090 -45.605458 -0.779089 2.054628 47.428606 3.889373 18.330278 -18.460453 -3.038400 -0.000000 -15.218200 8.266826 0.147463 0.685542 16.326807 15.755494 -38.021064 2.335742 -1.147739 35.498128 -1.242656 1.157526 -21.565290 -179.469200 0.000000 -5.003200
0.390528 16.832208 1.978010 4.173086 70.264596 40.329035 -8.711526 -0.949360 -0.596947 -3.393902 -5.955812 -46.114388 -0.919158 1.710899 43.546342 3.840054 17.587156 -18.020204 -2.741900 0.000000 -16.118700 8.389856 0.070829 0.682999 16.198517 15.542893 -36.744287 2.433863 -0.967513 32.831759 -0.800210 2.305943 -18.668318 -179.775199 0.000001 -1.690800
0.575721 16.946964 2.074239 3.167914 69.225512 39.927828 -8.453782 -0.990284 -0.302918 -3.016301 -6.294305 -46.496248 -1.056120 1.340925 39.398307 3.754672 16.740796 -17.365600 -2.379000 0.000000 -17.241400 8.543808 -0.011997 0.674033 16.076724 15.263507 -35.560203 2.503115 -0.823870 30.336338 -0.379635 3.350723 -15.524333 0.035600 0.000000 -2.783900
0.763006 17.056790 2.170408 2.187690 68.156457 39.534672 -8.218339 -1.014761 -0.006805 -2.660256 -6.478040 -46.768254 -1.190383 0.948544 35.051019 3.633796 15.823069 -16.505815 -1.969900 0.000000 -18.572100 8.726040 -0.102301 0.654834 15.976283 14.904259 -34.494308 2.541463 -0.723482 28.105749 -0.010513 4.223707 -12.263090 -0.028100 -0.000000 -8.213100
